<?xml version="1.0" ?><svg id="Layer_1" style="enable-background:new 0 0 512 512;" version="1.1" viewBox="0 0 512 512" xml:space="preserve" xmlns="http://www.w3.org/2000/svg" xmlns:xlink="http://www.w3.org/1999/xlink"><style type="text/css">
	.st0{fill:#232323;}
	.st1{fill:#F4908C;}
	.st2{fill:#FBD502;}
	.st3{fill:#2E4356;}
	.st4{fill:#CCE134;}
</style><g><g><g><polygon class="st0" id="XMLID_6_" points="493,106.7 506,133.9 324.6,220.8 294.9,175.1 76.5,301.9 61.4,275.9 304.5,134.7      335.4,182.2    "/><polygon class="st0" id="XMLID_5_" points="6,325.3 95.3,328.8 45.4,245    "/></g><g><polygon class="st1" id="XMLID_4_" points="301.3,213.3 301.3,405.3 301.3,405.3 363.4,405.3 363.4,219.3 319,240.6    "/><polygon class="st2" id="XMLID_3_" points="395.1,204.1 395.1,405.3 457.1,405.3 457.1,174.4    "/><polygon class="st3" id="XMLID_2_" points="207.6,405.3 269.6,405.3 269.6,207.6 207.6,243.7    "/><polygon class="st4" id="XMLID_1_" points="113.8,405.3 113.8,405.3 175.9,405.3 175.9,262.1 113.8,298.1    "/></g></g></g></svg>