<svg width="36" height="36" xmlns="http://www.w3.org/2000/svg">
 <g>
  <title>background</title>
  <rect x="-1" y="-1" width="4.759378" height="4.759378" id="canvas_background" fill="none"/>
 </g>

 <g>
  <title>Layer 1</title>
  <path d="m3,5.500017l0,1l2.5,0c0.27613,0 0.49997,0.2239 0.5,0.5l0,3l0,2l0,2l0,2l0,5l0,4l0,5.5l1,0l0,-0.5l0,-2.8789l0,-0.2363l0,-1.8848l0,-5.8789l0,-0.2363l0,-2.627l0,-2.5137l0,-1.7441l0,-2l0,-2l0,-1l0,-1.5l-1.5,0l-2.5,0zm5,3l0,1l1.5,0c0.18918,-0.0002 0.36227,0.1064 0.44727,0.2754c0.0348,0.07 0.0529,0.1466 0.0527,0.2246l0,2c-0.0001,0.077 -0.0181,0.1535 -0.0527,0.2227c-0.0845,0.1697 -0.25766,0.2771 -0.44727,0.2773l-1.5,0l0,1l1.5,0c0.18918,-0.0002 0.36227,0.1064 0.44727,0.2754c0.0348,0.07 0.0529,0.1466 0.0527,0.2246l0,2c-0.0001,0.077 -0.0181,0.1535 -0.0527,0.2227c-0.0845,0.1697 -0.25766,0.2771 -0.44727,0.2773l-1.5,0l0,2l1.49219,0c0.67616,-0.01 0.67616,1.0096 0,1l-1.49219,0l0,1l1.5,0c0.27613,0 0.49997,0.2239 0.5,0.5l0,4c-0.00003,0.2761 -0.22387,0.5 -0.5,0.5l-1.5,0l0,1l1.49219,0c0.67616,-0.01 0.67616,1.0096 0,1l-1.49219,0l0,2l25,0l0,-21l-25,0zm4.46485,1c0.0117,-0.0004 0.0237,-0.0004 0.0351,0c0.27614,0 0.5,0.2239 0.5,0.5c0,0.2761 -0.22386,0.5 -0.5,0.5c-0.27614,0 -0.5,-0.2239 -0.5,-0.5c-0.00065,-0.263 0.20252,-0.4815 0.46485,-0.5l0.00005,0zm2,0c0.0117,-0.0004 0.0237,-0.0004 0.0351,0c0.27614,0 0.5,0.2239 0.5,0.5c0,0.2761 -0.22386,0.5 -0.5,0.5c-0.27614,0 -0.5,-0.2239 -0.5,-0.5c-0.00065,-0.263 0.20252,-0.4815 0.46485,-0.5l0.00005,0zm2,0c0.0117,-0.0004 0.0237,-0.0004 0.0351,0c0.27614,0 0.5,0.2239 0.5,0.5c0,0.2761 -0.22386,0.5 -0.5,0.5c-0.27614,0 -0.5,-0.2239 -0.5,-0.5c-0.00065,-0.263 0.20252,-0.4815 0.46485,-0.5l0.00005,0zm2,0c0.0117,-0.0004 0.0234,-0.0004 0.0351,0c0.27614,0 0.5,0.2239 0.5,0.5c0,0.2761 -0.22386,0.5 -0.5,0.5c-0.27614,0 -0.5,-0.2239 -0.5,-0.5c-0.00065,-0.263 0.20252,-0.4815 0.46485,-0.5l0.00005,0zm13,0c0.0117,-0.0004 0.0234,-0.0004 0.0351,0c0.27614,0 0.5,0.2239 0.5,0.5c0,0.2761 -0.22386,0.5 -0.5,0.5c-0.27614,0 -0.5,-0.2239 -0.5,-0.5c-0.00065,-0.263 0.20252,-0.4815 0.46485,-0.5l0.00005,0zm-27.46485,1l0,1l1,0l0,-1l-1,0zm4,0l0,1l1,0l0,-1l-1,0zm4,1l1,0l0,7l-1,0l0,-7zm2,0l1,0l0,7l-1,0l0,-7zm2,0l1,0l0,7l-1,0l0,-7zm2,0l1,0l0,7l-1,0l0,-7zm2,0l11,0l0,1l-11,0l0,-1zm0,2l11,0l0,1l-11,0l0,-1zm-16,1l0,1l1,0l0,-1l-1,0zm4,0l0,1l1,0l0,-1l-1,0zm18,1l1,0l0,8l-1,0l0,-8zm2,0l1,0l0,8l-1,0l0,-8zm2,0l1,0l0,6.5449l-1,0l0,-6.5449zm-9,1.5l3,0c0.27613,0 0.49997,0.2239 0.5,0.5l0,2c-0.00003,0.2761 -0.22387,0.5 -0.5,0.5l-3,0c-0.27613,0 -0.49997,-0.2239 -0.5,-0.5l0,-2c0.00003,-0.2761 0.22387,-0.5 0.5,-0.5zm0.5,1l0,1l2,0l0,-1l-2,0zm-18.49414,0.5l0,1l2,0l0,-1l-2,0zm9.99414,2l1,0l0,1l1,0l0,-1l1,0l0,1l0.5,0c0.0773,0.0001 0.15356,0.018 0.22266,0.053c0.16977,0.084 0.27717,0.2577 0.27734,0.4473l0,0.5l1,0l0,1l-1,0l0,1l1,0l0,1l-1,0l0,0.5c-0.00017,0.1896 -0.10757,0.3627 -0.27734,0.4472c-0.0691,0.034 -0.14536,0.053 -0.22266,0.053l-0.5,0l0,1l-1,0l0,-1l-1,0l0,1l-1,0l0,-1l-0.5,0c-0.078,0.0002 -0.15491,-0.018 -0.22461,-0.053c-0.16901,-0.085 -0.27559,-0.258 -0.27539,-0.4472l0,-0.5l-1,0l0,-1l1,0l0,-1l-1,0l0,-1l1,0l0,-0.5c-0.0002,-0.1892 0.10638,-0.3623 0.27539,-0.4473c0.0697,-0.035 0.14661,-0.053 0.22461,-0.053l0.5,0l0,-1zm-9,1l0,3l1,0l0,-3l-1,0zm4,0l0,3l1,0l0,-3l-1,0zm5,1l0,2l0,1l3,0l0,-2l0,-1l-3,0zm6.5,1.5l3,0c0.27613,0 0.49997,0.2239 0.5,0.5l0,2c-0.00003,0.2761 -0.22387,0.5 -0.5,0.5l-3,0c-0.27613,0 -0.49997,-0.2239 -0.5,-0.5l0,-2c0.00003,-0.2761 0.22387,-0.5 0.5,-0.5zm4.5,0l3,0c0.27613,0 0.49997,0.2239 0.5,0.5l0,2c-0.00003,0.2761 -0.22387,0.5 -0.5,0.5l-3,0c-0.27613,0 -0.49997,-0.2239 -0.5,-0.5l0,-2c0.00003,-0.2761 0.22387,-0.5 0.5,-0.5zm4.5,0l3,0c0.27613,0 0.49997,0.2239 0.5,0.5l0,2c-0.00003,0.2761 -0.22387,0.5 -0.5,0.5l-3,0c-0.27613,0 -0.49997,-0.2239 -0.5,-0.5l0,-2c0.00003,-0.2761 0.22387,-0.5 0.5,-0.5zm-8.5,1l0,1l2,0l0,-1l-2,0zm4.5,0l0,1l2,0l0,-1l-2,0zm4.5,0l0,1l2,0l0,-1l-2,0zm-25.99414,1.5l0,1l2,0l0,-1l-2,0zm28.45899,1c0.0117,-0.0004 0.0234,-0.0004 0.0351,0c0.27614,0 0.5,0.2239 0.5,0.5c0,0.2761 -0.22386,0.5 -0.5,0.5c-0.27614,0 -0.5,-0.2239 -0.5,-0.5c-0.00065,-0.263 0.20252,-0.4815 0.46485,-0.5l0.00005,0z" id="rect4443" fill-rule="nonzero" fill="#fcbd5f"/>
 </g>
</svg>