<svg width="32" height="32" xmlns="http://www.w3.org/2000/svg">

 <g>
  <title>background</title>
  <rect fill="none" id="canvas_background" height="402" width="582" y="-1" x="-1"/>
 </g>
 <g>
  <title>Layer 1</title>
  <path id="svg_4" fill="#9c85ad" d="m27.5,24l-24,0c-0.276,0 -0.5,-0.224 -0.5,-0.5l0,-18c0,-0.276 0.224,-0.5 0.5,-0.5l24,0c0.146,0 0.284,0.063 0.38,0.175l3,3.5c0.077,0.091 0.12,0.206 0.12,0.325l0,11c0,0.119 -0.043,0.234 -0.12,0.325l-3,3.5c-0.096,0.112 -0.234,0.175 -0.38,0.175zm-23.5,-1l23.271,0l2.729,-3.185l0,-10.63l-2.729,-3.185l-23.271,0l0,17z"/>
  <path id="svg_11" fill="#9c85ad" d="m21.001,22c-4.136,0 -7.501,-3.364 -7.501,-7.5s3.365,-7.5 7.501,-7.5c4.135,0 7.499,3.364 7.499,7.5s-3.364,7.5 -7.499,7.5zm0,-14c-3.585,0 -6.501,2.916 -6.501,6.5s2.916,6.5 6.501,6.5c3.584,0 6.499,-2.916 6.499,-6.5s-2.915,-6.5 -6.499,-6.5z"/>
  <path id="svg_16" fill="#9c85ad" d="m15.551,19.45l1,0c0,-1.869 1.263,-2.881 2.898,-3.7c-0.209,-0.259 -0.355,-0.566 -0.415,-0.908c-1.861,0.934 -3.484,2.201 -3.483,4.608z"/>
  <path id="svg_17" fill="#9c85ad" d="m26.449,9.55l-1,0c0,1.869 -1.263,2.881 -2.898,3.7c0.209,0.259 0.355,0.566 0.415,0.908c1.861,-0.934 3.484,-2.201 3.483,-4.608z"/>
  <path id="svg_18" fill="#9c85ad" d="m25.244,16.147c1.096,0 2.156,-0.341 3.109,-1.294l-0.707,-0.707c-1.321,1.321 -2.93,1.143 -4.668,0.566c-0.037,0.345 -0.154,0.665 -0.344,0.935c0.87,0.289 1.751,0.5 2.61,0.5z"/>
  <path id="svg_19" fill="#9c85ad" d="m13.646,14.146l0.707,0.707c1.321,-1.321 2.93,-1.144 4.668,-0.566c0.037,-0.346 0.154,-0.666 0.345,-0.936c-1.976,-0.655 -4.018,-0.906 -5.72,0.795z"/>
  <path id="svg_20" fill="#9c85ad" d="m16.05,9.051l0,1c1.869,0 2.881,1.263 3.7,2.898c0.259,-0.209 0.566,-0.355 0.908,-0.415c-0.934,-1.861 -2.201,-3.483 -4.608,-3.483z"/>
  <path id="svg_21" fill="#9c85ad" d="m22.25,16.051c-0.259,0.209 -0.566,0.355 -0.908,0.415c0.935,1.861 2.201,3.483 4.608,3.483l0,-1c-1.869,0 -2.881,-1.262 -3.7,-2.898z"/>
  <path id="svg_22" fill="#9c85ad" d="m21.354,7.146l-0.707,0.707c1.321,1.321 1.144,2.931 0.566,4.668c0.346,0.037 0.666,0.154 0.936,0.345c0.656,-1.976 0.907,-4.017 -0.795,-5.72z"/>
  <path id="svg_23" fill="#9c85ad" d="m20.646,21.854l0.707,-0.707c-1.321,-1.321 -1.144,-2.931 -0.566,-4.668c-0.346,-0.037 -0.666,-0.154 -0.936,-0.345c-0.656,1.976 -0.907,4.017 0.795,5.72z"/>
  <path id="svg_26" fill="#9973bf" d="m21.001,17c-1.379,0 -2.501,-1.121 -2.501,-2.5s1.122,-2.5 2.501,-2.5c1.378,0 2.499,1.121 2.499,2.5s-1.121,2.5 -2.499,2.5zm0,-4c-0.827,0 -1.501,0.673 -1.501,1.5s0.674,1.5 1.501,1.5c0.826,0 1.499,-0.673 1.499,-1.5s-0.673,-1.5 -1.499,-1.5z"/>
  <path id="svg_30" fill="#9c85ad" d="m3,28.5l0,-22.5l-1.5,0c-0.276,0 -0.5,-0.224 -0.5,-0.5s0.224,-0.5 0.5,-0.5l2.5,0l0,23.5c0,0.276 -0.224,0.5 -0.5,0.5l0,0c-0.276,0 -0.5,-0.224 -0.5,-0.5z"/>
  <path id="svg_34" fill="#9c85ad" d="m3.5,22l-2,0c-0.276,0 -0.5,-0.224 -0.5,-0.5l0,-5c0,-0.276 0.224,-0.5 0.5,-0.5l2,0c0.276,0 0.5,0.224 0.5,0.5l0,5c0,0.276 -0.224,0.5 -0.5,0.5zm-1.5,-1l1,0l0,-4l-1,0l0,4z"/>
  <path id="svg_38" fill="#9c85ad" d="m3.5,12l-2,0c-0.276,0 -0.5,-0.224 -0.5,-0.5l0,-3c0,-0.276 0.224,-0.5 0.5,-0.5l2,0c0.276,0 0.5,0.224 0.5,0.5l0,3c0,0.276 -0.224,0.5 -0.5,0.5zm-1.5,-1l1,0l0,-2l-1,0l0,2z"/>
  <path id="svg_42" fill="#9c85ad" d="m1.5,24l1.5,0l-1.5,0z"/>
  <path id="svg_45" fill="#9c85ad" d="m3,24l-1.5,0c-0.276,0 -0.5,-0.224 -0.5,-0.5s0.224,-0.5 0.5,-0.5l1.5,0c0.276,0 0.5,0.224 0.5,0.5s-0.224,0.5 -0.5,0.5z"/>
  <path id="svg_49" fill="#9c85ad" d="m3,15l-1.5,0c-0.276,0 -0.5,-0.224 -0.5,-0.5s0.224,-0.5 0.5,-0.5l1.5,0c0.276,0 0.5,0.224 0.5,0.5s-0.224,0.5 -0.5,0.5z"/>
  <path id="svg_54" fill="#9c85ad" d="m25.5,27l-12,0c-0.276,0 -0.5,-0.224 -0.5,-0.5l0,-3c0,-0.276 0.224,-0.5 0.5,-0.5l12,0c0.276,0 0.5,0.224 0.5,0.5l0,3c0,0.276 -0.224,0.5 -0.5,0.5zm-11.5,-1l11,0l0,-2l-11,0l0,2z"/>
  <path id="svg_58" fill="#9c85ad" d="m11.5,27l-4,0c-0.276,0 -0.5,-0.224 -0.5,-0.5l0,-3c0,-0.276 0.224,-0.5 0.5,-0.5l4,0c0.276,0 0.5,0.224 0.5,0.5l0,3c0,0.276 -0.224,0.5 -0.5,0.5zm-3.5,-1l3,0l0,-2l-3,0l0,2z"/>
  <path id="svg_62" fill="#9c85ad" d="m23,25.5l0,1l0,-1z"/>
  <path id="svg_65" fill="#9c85ad" d="m23.5,27c-0.276,0 -0.5,-0.224 -0.5,-0.5l0,-1c0,-0.276 0.224,-0.5 0.5,-0.5s0.5,0.224 0.5,0.5l0,1c0,0.276 -0.224,0.5 -0.5,0.5z"/>
  <path id="svg_69" fill="#9c85ad" d="m21,25.5l0,1l0,-1z"/>
  <path id="svg_72" fill="#9c85ad" d="m21.5,27c-0.276,0 -0.5,-0.224 -0.5,-0.5l0,-1c0,-0.276 0.224,-0.5 0.5,-0.5s0.5,0.224 0.5,0.5l0,1c0,0.276 -0.224,0.5 -0.5,0.5z"/>
  <path id="svg_76" fill="#9c85ad" d="m19,25.5l0,1l0,-1z"/>
  <path id="svg_79" fill="#9c85ad" d="m19.5,27c-0.276,0 -0.5,-0.224 -0.5,-0.5l0,-1c0,-0.276 0.224,-0.5 0.5,-0.5s0.5,0.224 0.5,0.5l0,1c0,0.276 -0.224,0.5 -0.5,0.5z"/>
  <path id="svg_83" fill="#9c85ad" d="m17,25.5l0,1l0,-1z"/>
  <path id="svg_86" fill="#9c85ad" d="m17.5,27c-0.276,0 -0.5,-0.224 -0.5,-0.5l0,-1c0,-0.276 0.224,-0.5 0.5,-0.5s0.5,0.224 0.5,0.5l0,1c0,0.276 -0.224,0.5 -0.5,0.5z"/>
  <path id="svg_90" fill="#9c85ad" d="m15,25.5l0,1l0,-1z"/>
  <path id="svg_93" fill="#9c85ad" d="m15.5,27c-0.276,0 -0.5,-0.224 -0.5,-0.5l0,-1c0,-0.276 0.224,-0.5 0.5,-0.5s0.5,0.224 0.5,0.5l0,1c0,0.276 -0.224,0.5 -0.5,0.5z"/>
  <path id="svg_97" fill="#9c85ad" d="m9,25.5l0,1l0,-1z"/>
  <path id="svg_100" fill="#9c85ad" d="m9.5,27c-0.276,0 -0.5,-0.224 -0.5,-0.5l0,-1c0,-0.276 0.224,-0.5 0.5,-0.5s0.5,0.224 0.5,0.5l0,1c0,0.276 -0.224,0.5 -0.5,0.5z"/>
  <path id="svg_106" fill="#9c85ad" d="m4.5,22l-1,0c-0.276,0 -0.5,-0.224 -0.5,-0.5s0.224,-0.5 0.5,-0.5l1,0c0.276,0 0.5,0.224 0.5,0.5s-0.224,0.5 -0.5,0.5z"/>
  <path id="svg_111" fill="#9c85ad" d="m4.5,20l-1,0c-0.276,0 -0.5,-0.224 -0.5,-0.5s0.224,-0.5 0.5,-0.5l1,0c0.276,0 0.5,0.224 0.5,0.5s-0.224,0.5 -0.5,0.5z"/>
  <path id="svg_116" fill="#9c85ad" d="m4.5,18l-1,0c-0.276,0 -0.5,-0.224 -0.5,-0.5s0.224,-0.5 0.5,-0.5l1,0c0.276,0 0.5,0.224 0.5,0.5s-0.224,0.5 -0.5,0.5z"/>
  <path id="svg_121" fill="#9c85ad" d="m4.5,16l-1,0c-0.276,0 -0.5,-0.224 -0.5,-0.5s0.224,-0.5 0.5,-0.5l1,0c0.276,0 0.5,0.224 0.5,0.5s-0.224,0.5 -0.5,0.5z"/>
  <path id="svg_126" fill="#9c85ad" d="m4.5,14l-1,0c-0.276,0 -0.5,-0.224 -0.5,-0.5s0.224,-0.5 0.5,-0.5l1,0c0.276,0 0.5,0.224 0.5,0.5s-0.224,0.5 -0.5,0.5z"/>
  <path id="svg_131" fill="#9c85ad" d="m4.5,12l-1,0c-0.276,0 -0.5,-0.224 -0.5,-0.5s0.224,-0.5 0.5,-0.5l1,0c0.276,0 0.5,0.224 0.5,0.5s-0.224,0.5 -0.5,0.5z"/>
  <path id="svg_136" fill="#9c85ad" d="m4.5,10l-1,0c-0.276,0 -0.5,-0.224 -0.5,-0.5s0.224,-0.5 0.5,-0.5l1,0c0.276,0 0.5,0.224 0.5,0.5s-0.224,0.5 -0.5,0.5z"/>
  <path id="svg_141" fill="#9c85ad" d="m4.5,8l-1,0c-0.276,0 -0.5,-0.224 -0.5,-0.5s0.224,-0.5 0.5,-0.5l1,0c0.276,0 0.5,0.224 0.5,0.5s-0.224,0.5 -0.5,0.5z"/>
  <path id="svg_145" fill="#9c85ad" d="m10.5,21l-2,0c-0.276,0 -0.5,-0.224 -0.5,-0.5l0,-4c0,-0.276 0.224,-0.5 0.5,-0.5l2,0c0.276,0 0.5,0.224 0.5,0.5l0,4c0,0.276 -0.224,0.5 -0.5,0.5zm-1.5,-1l1,0l0,-3l-1,0l0,3z"/>
  <path id="svg_149" fill="#9c85ad" d="m10.5,14l-2,0c-0.276,0 -0.5,-0.224 -0.5,-0.5l0,-5c0,-0.276 0.224,-0.5 0.5,-0.5l2,0c0.276,0 0.5,0.224 0.5,0.5l0,5c0,0.276 -0.224,0.5 -0.5,0.5zm-1.5,-1l1,0l0,-4l-1,0l0,4z"/>
 </g>
</svg>